<?xml version="1.0" encoding="UTF-8"?>
<svg width="86px" height="31px" viewBox="0 0 86 31" version="1.1" xmlns="http://www.w3.org/2000/svg" xmlns:xlink="http://www.w3.org/1999/xlink">
    <!-- Generator: Sketch 55.1 (78136) - https://sketchapp.com -->
    <title>Group 3</title>
    <desc>Created with Sketch.</desc>
    <g id="2-Home" stroke="none" stroke-width="1" fill="none" fill-rule="evenodd">
        <g id="Capabilities_Strategic_Consulting_Desktop" transform="translate(-1267.000000, -33.000000)">
            <g id="HEADER" transform="translate(86.000000, 33.000000)">
                <g id="Group-3" transform="translate(1181.000000, 0.000000)">
                    <rect id="Rectangle" fill="#000000" opacity="0.1" x="0" y="0" width="86" height="31" rx="1"></rect>
                    <path d="M19,21 C15.544,21 13,18.312 13,15 C13,11.592 15.656,9 19,9 C21.208,9 23.128,10.184 24.168,11.944 L22.648,12.888 C21.928,11.544 20.648,10.68 19,10.68 C16.568,10.68 14.744,12.6 14.744,15 C14.744,17.368 16.568,19.288 18.984,19.288 C20.792,19.288 22.088,18.296 22.76,16.888 L24.328,17.72 C23.32,19.672 21.384,21 19,21 Z M29.304,21 C27,21 25.16,19.16 25.16,16.84 C25.16,14.504 27,12.68 29.304,12.68 C31.608,12.68 33.464,14.504 33.464,16.84 C33.464,19.16 31.608,21 29.304,21 Z M29.304,19.4 C30.68,19.4 31.768,18.248 31.768,16.84 C31.768,15.432 30.68,14.28 29.304,14.28 C27.928,14.28 26.856,15.432 26.856,16.84 C26.856,18.248 27.928,19.4 29.304,19.4 Z M34.824,20.84 L34.824,12.84 L36.52,12.84 L36.52,13.88 C37.064,13.144 37.928,12.68 38.984,12.68 C41,12.68 42.232,13.992 42.232,16.168 L42.232,20.84 L40.504,20.84 L40.504,16.312 C40.504,15 39.848,14.168 38.568,14.168 C37.416,14.168 36.536,15.032 36.536,16.44 L36.536,20.84 L34.824,20.84 Z M43.512,14.376 L43.512,12.84 L44.872,12.84 L44.872,10.952 L46.6,10.008 L46.6,12.84 L48.296,12.84 L48.296,14.376 L46.6,14.376 L46.6,17.56 C46.6,19 46.824,19.224 48.296,19.224 L48.296,20.84 L48.04,20.84 C45.608,20.84 44.872,20.072 44.872,17.576 L44.872,14.376 L43.512,14.376 Z M53.432,21 C51.4,21 49.448,19.384 49.448,16.84 C49.448,14.28 51.352,12.68 53.448,12.68 C54.504,12.68 55.512,13.144 56.104,13.88 L56.104,12.84 L57.816,12.84 L57.816,20.84 L56.104,20.84 L56.104,19.736 C55.496,20.52 54.488,21 53.432,21 Z M53.672,19.432 C55.128,19.432 56.2,18.264 56.2,16.824 C56.2,15.4 55.128,14.232 53.672,14.232 C52.248,14.232 51.144,15.368 51.144,16.824 C51.144,18.28 52.248,19.432 53.672,19.432 Z M63.352,21 C60.984,21 59.176,19.144 59.176,16.84 C59.176,14.488 61.016,12.68 63.352,12.68 C65.128,12.68 66.536,13.688 67.144,15.128 L65.608,15.784 C65.208,14.856 64.392,14.28 63.352,14.28 C61.928,14.28 60.856,15.416 60.856,16.84 C60.856,18.248 61.944,19.4 63.384,19.4 C64.472,19.4 65.272,18.728 65.64,17.832 L67.192,18.488 C66.552,19.96 65.224,21 63.352,21 Z M68.088,14.376 L68.088,12.84 L69.448,12.84 L69.448,10.952 L71.176,10.008 L71.176,12.84 L72.872,12.84 L72.872,14.376 L71.176,14.376 L71.176,17.56 C71.176,19 71.4,19.224 72.872,19.224 L72.872,20.84 L72.616,20.84 C70.184,20.84 69.448,20.072 69.448,17.576 L69.448,14.376 L68.088,14.376 Z" id="Contact" fill="#FFFFFF" fill-rule="nonzero"></path>
                </g>
            </g>
        </g>
    </g>
</svg>