<svg width="108" height="33" viewBox="0 0 108 33" fill="none" xmlns="http://www.w3.org/2000/svg">
<path d="M9.224 23H16.755V21.725H10.55V17.407H16.755V16.149H10.55V11.848H16.755V10.59H9.224V23ZM18.4073 23H19.7163V18.291C19.7163 16.744 20.8553 15.52 22.4023 15.52C24.1023 15.52 24.9523 16.625 24.9523 18.274V23H26.2783V18.274C26.2783 15.826 24.8673 14.33 22.5893 14.33C21.3143 14.33 20.2943 14.891 19.6993 15.758V14.5H18.4073V23ZM27.015 15.69H28.477V19.753C28.477 22.286 29.14 23 31.622 23H31.809V21.759C30.126 21.759 29.803 21.47 29.803 19.736V15.69H31.809V14.5H29.803V11.763L28.477 12.494V14.5H27.015V15.69ZM37.0578 23.17C38.9618 23.17 40.2878 22.286 41.0698 20.807L39.9308 20.246C39.4038 21.283 38.4348 21.997 37.0578 21.997C35.3578 21.997 34.0318 20.858 33.8618 19.175H41.3418V18.614C41.3418 16.013 39.4378 14.33 36.9898 14.33C34.4398 14.33 32.5868 16.268 32.5868 18.818C32.5868 21.317 34.3548 23.17 37.0578 23.17ZM36.9898 15.503C38.6388 15.503 39.7608 16.438 39.9988 17.968H33.9298C34.2698 16.54 35.4598 15.503 36.9898 15.503ZM42.809 23H44.135V18.597C44.135 16.625 44.866 15.724 46.702 15.724H47.535V14.5H46.753C45.529 14.5 44.628 14.976 44.118 15.826V14.5H42.809V23ZM54.6395 23.17C56.9175 23.17 58.0395 21.878 58.0395 20.586C58.0395 18.852 56.4585 18.41 55.0475 18.087C53.7385 17.764 52.7525 17.628 52.7525 16.761C52.7525 16.03 53.3815 15.435 54.6055 15.435C55.6595 15.435 56.3395 15.758 56.9175 16.438L57.9205 15.622C57.1215 14.738 55.9825 14.313 54.6055 14.313C52.6505 14.313 51.4605 15.503 51.4605 16.778C51.4605 18.444 52.9905 18.869 54.3505 19.192C55.5235 19.464 56.7475 19.651 56.7475 20.586C56.7475 21.368 56.0505 22.014 54.7075 22.014C53.5175 22.014 52.7015 21.538 52.0045 20.722L50.9675 21.64C51.8345 22.643 53.0415 23.17 54.6395 23.17ZM59.3415 14.5V23H60.6675V14.5H59.3415ZM58.9675 11.695C58.9675 12.29 59.3925 12.749 60.0045 12.749C60.6165 12.749 61.0585 12.29 61.0585 11.695C61.0585 11.1 60.6165 10.658 60.0045 10.658C59.4265 10.658 58.9675 11.1 58.9675 11.695ZM61.873 15.69H63.335V19.753C63.335 22.286 63.998 23 66.48 23H66.667V21.759C64.984 21.759 64.661 21.47 64.661 19.736V15.69H66.667V14.5H64.661V11.763L63.335 12.494V14.5H61.873V15.69ZM71.9158 23.17C73.8197 23.17 75.1458 22.286 75.9278 20.807L74.7888 20.246C74.2618 21.283 73.2928 21.997 71.9158 21.997C70.2158 21.997 68.8897 20.858 68.7197 19.175H76.1998V18.614C76.1998 16.013 74.2958 14.33 71.8478 14.33C69.2977 14.33 67.4447 16.268 67.4447 18.818C67.4447 21.317 69.2128 23.17 71.9158 23.17ZM71.8478 15.503C73.4968 15.503 74.6188 16.438 74.8568 17.968H68.7877C69.1277 16.54 70.3177 15.503 71.8478 15.503Z" fill="black"/>
<g clip-path="url(#clip0)">
<path d="M86.6025 16.9595L92.6673 23.0242L98.732 16.9595" stroke="black"/>
</g>
<path d="M92.75 19V11" stroke="black"/>
<defs>
<clipPath id="clip0">
<rect width="5" height="14" fill="white" transform="translate(100 18) rotate(90)"/>
</clipPath>
</defs>
</svg>
