<?xml version="1.0" encoding="UTF-8"?>
<svg width="162px" height="14px" viewBox="0 0 162 14" version="1.1" xmlns="http://www.w3.org/2000/svg" xmlns:xlink="http://www.w3.org/1999/xlink">
    <!-- Generator: Sketch 53.1 (72631) - https://sketchapp.com -->
    <title>slogan_Wht</title>
    <desc>Created with Sketch.</desc>
    <g id="2-Home" stroke="none" stroke-width="1" fill="none" fill-rule="evenodd">
        <g id="Landing-Page" transform="translate(-73.000000, -638.000000)" fill="#FFFFFF" fill-rule="nonzero">
            <path d="M79.838,651.17 C76.319,651.17 73.463,648.314 73.463,644.795 C73.463,641.276 76.319,638.42 79.838,638.42 C82.201,638.42 84.258,639.712 85.363,641.616 L84.224,642.279 C83.374,640.732 81.759,639.678 79.838,639.678 C76.982,639.678 74.823,641.99 74.823,644.795 C74.823,647.6 76.982,649.912 79.838,649.912 C81.997,649.912 83.544,648.773 84.36,647.124 L85.533,647.736 C84.462,649.776 82.422,651.17 79.838,651.17 Z M91.211,651.17 C88.763,651.17 86.808,649.249 86.808,646.75 C86.808,644.251 88.763,642.33 91.211,642.33 C93.659,642.33 95.631,644.251 95.631,646.75 C95.631,649.249 93.659,651.17 91.211,651.17 Z M91.211,649.98 C92.945,649.98 94.305,648.535 94.305,646.75 C94.305,644.965 92.945,643.52 91.211,643.52 C89.477,643.52 88.134,644.965 88.134,646.75 C88.134,648.535 89.477,649.98 91.211,649.98 Z M97.586,651 L97.586,642.5 L98.878,642.5 L98.878,643.758 C99.473,642.891 100.493,642.33 101.768,642.33 C104.046,642.33 105.457,643.826 105.457,646.274 L105.457,651 L104.131,651 L104.131,646.274 C104.131,644.625 103.281,643.52 101.581,643.52 C100.034,643.52 98.895,644.744 98.895,646.291 L98.895,651 L97.586,651 Z M110.557,651.17 C109.078,651.17 107.837,650.558 107.004,649.538 L108.041,648.688 C108.67,649.47 109.52,650.014 110.608,650.014 C111.883,650.014 112.529,649.334 112.529,648.552 C112.529,647.651 111.407,647.481 110.234,647.209 C108.874,646.886 107.412,646.444 107.412,644.778 C107.412,643.52 108.602,642.313 110.506,642.313 C111.764,642.313 113.005,642.772 113.736,643.622 L112.767,644.438 C112.189,643.792 111.458,643.435 110.506,643.435 C109.333,643.435 108.704,644.047 108.704,644.761 C108.704,645.628 109.775,645.832 110.931,646.104 C112.308,646.427 113.821,646.852 113.821,648.552 C113.821,649.64 112.92,651.17 110.557,651.17 Z M119.499,651.17 C117.017,651.17 115.742,649.674 115.742,647.226 L115.742,642.5 L117.068,642.5 L117.068,647.226 C117.068,648.875 117.918,649.98 119.618,649.98 C121.165,649.98 122.304,648.756 122.304,647.209 L122.304,642.5 L123.613,642.5 L123.613,651 L122.321,651 L122.321,649.742 C121.726,650.609 120.723,651.17 119.499,651.17 Z M125.908,651 L125.908,638.59 L127.234,638.59 L127.234,651 L125.908,651 Z M128.968,643.69 L128.968,642.5 L130.43,642.5 L130.43,640.494 L131.756,639.763 L131.756,642.5 L133.762,642.5 L133.762,643.69 L131.756,643.69 L131.756,647.736 C131.756,649.47 132.079,649.759 133.762,649.759 L133.762,651 L133.575,651 C131.093,651 130.43,650.286 130.43,647.753 L130.43,643.69 L128.968,643.69 Z M139.729,651.17 C137.23,651.17 135.377,649.181 135.377,646.75 C135.377,644.319 137.196,642.33 139.729,642.33 C140.817,642.33 142.126,642.891 142.857,643.894 L142.857,642.5 L144.166,642.5 L144.166,651 L142.857,651 L142.857,649.606 C142.126,650.626 140.817,651.17 139.729,651.17 Z M139.797,649.98 C141.616,649.98 142.976,648.535 142.976,646.75 C142.976,644.982 141.616,643.52 139.797,643.52 C138.063,643.52 136.703,644.965 136.703,646.75 C136.703,648.535 138.063,649.98 139.797,649.98 Z M146.444,651 L146.444,642.5 L147.736,642.5 L147.736,643.758 C148.331,642.891 149.351,642.33 150.626,642.33 C152.904,642.33 154.315,643.826 154.315,646.274 L154.315,651 L152.989,651 L152.989,646.274 C152.989,644.625 152.139,643.52 150.439,643.52 C148.892,643.52 147.753,644.744 147.753,646.291 L147.753,651 L146.444,651 Z M155.998,643.69 L155.998,642.5 L157.46,642.5 L157.46,640.494 L158.786,639.763 L158.786,642.5 L160.792,642.5 L160.792,643.69 L158.786,643.69 L158.786,647.736 C158.786,649.47 159.109,649.759 160.792,649.759 L160.792,651 L160.605,651 C158.123,651 157.46,650.286 157.46,647.753 L157.46,643.69 L155.998,643.69 Z M165.586,651.17 C164.107,651.17 162.866,650.558 162.033,649.538 L163.07,648.688 C163.699,649.47 164.549,650.014 165.637,650.014 C166.912,650.014 167.558,649.334 167.558,648.552 C167.558,647.651 166.436,647.481 165.263,647.209 C163.903,646.886 162.441,646.444 162.441,644.778 C162.441,643.52 163.631,642.313 165.535,642.313 C166.793,642.313 168.034,642.772 168.765,643.622 L167.796,644.438 C167.218,643.792 166.487,643.435 165.535,643.435 C164.362,643.435 163.733,644.047 163.733,644.761 C163.733,645.628 164.804,645.832 165.96,646.104 C167.337,646.427 168.85,646.852 168.85,648.552 C168.85,649.64 167.949,651.17 165.586,651.17 Z M174.494,643.69 L174.494,642.5 L175.956,642.5 L175.956,640.494 L177.282,639.763 L177.282,642.5 L179.288,642.5 L179.288,643.69 L177.282,643.69 L177.282,647.736 C177.282,649.47 177.605,649.759 179.288,649.759 L179.288,651 L179.101,651 C176.619,651 175.956,650.286 175.956,647.753 L175.956,643.69 L174.494,643.69 Z M181.243,651 L181.243,638.59 L182.535,638.59 L182.535,643.741 C183.13,642.891 184.15,642.33 185.425,642.33 C187.703,642.33 189.114,643.826 189.114,646.274 L189.114,651 L187.788,651 L187.788,646.274 C187.788,644.625 186.938,643.52 185.238,643.52 C183.691,643.52 182.552,644.744 182.552,646.291 L182.552,651 L181.243,651 Z M195.404,651.17 C192.905,651.17 191.052,649.181 191.052,646.75 C191.052,644.319 192.871,642.33 195.404,642.33 C196.492,642.33 197.801,642.891 198.532,643.894 L198.532,642.5 L199.841,642.5 L199.841,651 L198.532,651 L198.532,649.606 C197.801,650.626 196.492,651.17 195.404,651.17 Z M195.472,649.98 C197.291,649.98 198.651,648.535 198.651,646.75 C198.651,644.982 197.291,643.52 195.472,643.52 C193.738,643.52 192.378,644.965 192.378,646.75 C192.378,648.535 193.738,649.98 195.472,649.98 Z M201.558,643.69 L201.558,642.5 L203.02,642.5 L203.02,640.494 L204.346,639.763 L204.346,642.5 L206.352,642.5 L206.352,643.69 L204.346,643.69 L204.346,647.736 C204.346,649.47 204.669,649.759 206.352,649.759 L206.352,651 L206.165,651 C203.683,651 203.02,650.286 203.02,647.753 L203.02,643.69 L201.558,643.69 Z M216.569,651.17 C214.07,651.17 212.217,649.181 212.217,646.75 C212.217,644.319 214.036,642.33 216.569,642.33 C217.657,642.33 218.949,642.874 219.68,643.877 L219.68,638.59 L220.955,638.59 L220.955,651 L219.697,651 L219.697,649.606 C218.966,650.626 217.657,651.17 216.569,651.17 Z M216.637,649.98 C218.456,649.98 219.816,648.535 219.816,646.75 C219.816,644.982 218.456,643.52 216.637,643.52 C214.903,643.52 213.543,644.965 213.543,646.75 C213.543,648.535 214.903,649.98 216.637,649.98 Z M227.33,651.17 C224.882,651.17 222.927,649.249 222.927,646.75 C222.927,644.251 224.882,642.33 227.33,642.33 C229.778,642.33 231.75,644.251 231.75,646.75 C231.75,649.249 229.778,651.17 227.33,651.17 Z M227.33,649.98 C229.064,649.98 230.424,648.535 230.424,646.75 C230.424,644.965 229.064,643.52 227.33,643.52 C225.596,643.52 224.253,644.965 224.253,646.75 C224.253,648.535 225.596,649.98 227.33,649.98 Z M233.62,651 L233.62,648.671 L234.946,648.671 L234.946,651 L233.62,651 Z" id="slogan_Wht"></path>
        </g>
    </g>
</svg>